<svg width="137" height="432" viewBox="0 0 137 432" fill="none" xmlns="http://www.w3.org/2000/svg">
<path d="M125.6 432H0V0H122.63H125.6C124.58 1.26 123.59 2.52 122.63 3.78C122.01 4.6 121.4 5.41 120.8 6.23C116.61 11.94 113.01 17.61 109.96 23.27C109.43 24.24 108.92 25.2 108.43 26.17C107.57 27.86 106.75 29.56 105.98 31.25C105.57 32.16 105.17 33.07 104.78 33.98C102.27 39.88 100.3 45.78 98.81 51.71C98.61 52.52 98.41 53.32 98.23 54.13C97.9 55.55 97.6 56.98 97.33 58.41C97.18 59.18 97.04 59.95 96.9 60.73C96.02 65.87 95.46 71.05 95.19 76.27C95.15 76.99 95.12 77.71 95.09 78.44C95.05 79.72 95.02 81.01 95.01 82.3C95.01 83 95 83.7 95.01 84.41C95.02 89.14 95.25 93.91 95.66 98.74C95.72 99.41 95.78 100.08 95.85 100.75C95.96 101.96 96.09 103.17 96.23 104.39C96.3 105.05 96.38 105.71 96.46 106.37C97.01 110.85 97.7 115.39 98.5 119.98C98.61 120.62 98.73 121.27 98.85 121.91C99.06 123.07 99.27 124.23 99.5 125.4C99.62 126.03 99.74 126.66 99.87 127.3C100.73 131.65 101.68 136.05 102.7 140.52C102.84 141.14 102.99 141.78 103.14 142.41C103.4 143.54 103.67 144.67 103.94 145.81C104.09 146.44 104.24 147.06 104.39 147.69C105.41 151.96 106.5 156.29 107.62 160.69C107.77 161.31 107.93 161.94 108.09 162.56C108.38 163.68 108.67 164.81 108.96 165.94C109.12 166.56 109.28 167.17 109.44 167.79C110.54 172.04 111.66 176.35 112.79 180.73C112.96 181.35 113.12 181.97 113.28 182.59C113.57 183.71 113.86 184.83 114.15 185.96C114.31 186.58 114.47 187.2 114.63 187.82C115.71 192.04 116.8 196.32 117.88 200.67C118.04 201.32 118.2 201.96 118.37 202.61C118.64 203.75 118.92 204.9 119.21 206.05C119.36 206.67 119.51 207.3 119.66 207.93C120.04 209.5 120.42 211.08 120.79 212.67C121.32 214.94 121.85 217.22 122.38 219.52C135.25 276.21 144.13 344.21 125.6 432Z" fill="#C7D7C0"/>
<path d="M10.68 129.76C9.47 130.38 8.39 131.29 7.55 132.39C6.72 133.48 6.12 134.78 5.83 136.14C5.68 136.82 5.61 137.51 5.61 138.2V151.25L34.94 136.14L37.2 134.97C38.72 134.19 40 132.98 40.9 131.49C41.79 130 42.27 128.28 42.27 126.53V113.48L10.68 129.76ZM40.43 126.53C40.44 127.93 40.06 129.31 39.34 130.5C38.63 131.7 37.6 132.66 36.38 133.29L7.44 148.19V138.2C7.44 137.51 7.53 136.81 7.72 136.14C8 135.12 8.47 134.19 9.12 133.38C9.78 132.57 10.57 131.91 11.49 131.44L40.43 116.54V126.53Z" fill="#D4E1CF"/>
<path d="M10.68 152.46C9.47 153.09 8.39 153.99 7.55 155.09C6.72 156.19 6.12 157.49 5.83 158.85C5.68 159.52 5.61 160.21 5.61 160.9V173.95L34.94 158.85L37.2 157.67C38.72 156.89 40 155.69 40.9 154.2C41.79 152.7 42.27 150.99 42.27 149.23V136.18L10.68 152.46ZM40.43 149.23C40.44 150.64 40.06 152.01 39.34 153.21C38.63 154.4 37.6 155.37 36.38 155.99L30.84 158.85L7.44 170.89V160.9C7.44 160.21 7.53 159.52 7.72 158.85C8 157.83 8.47 156.9 9.12 156.08C9.78 155.27 10.57 154.62 11.49 154.14L40.43 139.24V149.23Z" fill="#D4E1CF"/>
<path d="M10.68 175.17C9.47 175.79 8.39 176.7 7.55 177.79C6.72 178.89 6.12 180.19 5.83 181.55C5.68 182.22 5.61 182.91 5.61 183.61V196.66L34.94 181.55L37.2 180.38C38.72 179.59 40 178.39 40.9 176.9C41.79 175.41 42.27 173.69 42.27 171.94V158.89L10.68 175.17ZM40.43 171.94C40.44 173.34 40.06 174.71 39.34 175.91C38.63 177.11 37.6 178.07 36.38 178.7L7.44 193.6V183.61C7.44 182.91 7.53 182.22 7.72 181.55C8 180.53 8.47 179.6 9.12 178.79C9.78 177.97 10.57 177.32 11.49 176.85L40.43 161.95V171.94Z" fill="#D4E1CF"/>
<path d="M10.68 197.87C9.47 198.49 8.39 199.4 7.55 200.5C6.72 201.59 6.12 202.89 5.83 204.25C5.68 204.93 5.61 205.62 5.61 206.31V219.36L34.94 204.25L37.2 203.08C38.72 202.3 40 201.09 40.9 199.6C41.79 198.11 42.27 196.39 42.27 194.64V181.59L10.68 197.87ZM40.43 194.64C40.44 196.04 40.06 197.42 39.34 198.61C38.63 199.81 37.6 200.77 36.38 201.4L7.44 216.3V206.31C7.44 205.62 7.53 204.92 7.72 204.25C8 203.23 8.47 202.3 9.12 201.49C9.78 200.68 10.57 200.02 11.49 199.55L40.43 184.65V194.64Z" fill="#D4E1CF"/>
<path d="M10.68 220.57C9.47 221.19 8.39 222.1 7.55 223.2C6.72 224.3 6.12 225.6 5.83 226.96C5.68 227.63 5.61 228.32 5.61 229.01V242.06L34.94 226.96L37.2 225.78C38.72 225 40 223.8 40.9 222.31C41.79 220.81 42.27 219.1 42.27 217.34V204.29L10.68 220.57ZM40.43 217.34C40.44 218.75 40.06 220.12 39.34 221.32C38.63 222.51 37.6 223.48 36.38 224.1L30.84 226.96L7.44 239V229.01C7.44 228.32 7.53 227.63 7.72 226.96C8 225.93 8.47 225.01 9.12 224.19C9.78 223.38 10.57 222.73 11.49 222.25L40.43 207.35V217.34Z" fill="#D4E1CF"/>
<path d="M10.68 243.28C9.47 243.9 8.39 244.81 7.55 245.9C6.72 247 6.12 248.3 5.83 249.66C5.68 250.33 5.61 251.02 5.61 251.72V264.77L34.94 249.66L37.2 248.49C38.72 247.7 40 246.5 40.9 245.01C41.79 243.52 42.27 241.8 42.27 240.05V227L10.68 243.28ZM40.43 240.05C40.44 241.45 40.06 242.82 39.34 244.02C38.63 245.22 37.6 246.18 36.38 246.81L7.44 261.71V251.72C7.44 251.02 7.53 250.33 7.72 249.66C8 248.64 8.47 247.71 9.12 246.9C9.78 246.08 10.57 245.43 11.49 244.96L40.43 230.06V240.05Z" fill="#D4E1CF"/>
<path d="M10.68 265.98C9.47 266.6 8.39 267.51 7.55 268.61C6.72 269.7 6.12 271 5.83 272.36C5.68 273.04 5.61 273.73 5.61 274.42V287.47L34.94 272.36L37.2 271.19C38.72 270.41 40 269.2 40.9 267.71C41.79 266.22 42.27 264.5 42.27 262.75V249.7L10.68 265.98ZM40.43 262.75C40.44 264.15 40.06 265.53 39.34 266.72C38.63 267.92 37.6 268.88 36.38 269.51L7.44 284.41V274.42C7.44 273.73 7.53 273.03 7.72 272.36C8 271.34 8.47 270.41 9.12 269.6C9.78 268.79 10.57 268.13 11.49 267.66L40.43 252.76V262.75Z" fill="#D4E1CF"/>
<path d="M102.7 140.52L87.8 148.19V138.2C87.8 137.51 87.89 136.81 88.07 136.14C88.35 135.12 88.83 134.19 89.48 133.38C90.13 132.57 90.93 131.91 91.85 131.44L99.87 127.3C99.74 126.66 99.62 126.03 99.5 125.4L91.03 129.76C89.82 130.38 88.74 131.29 87.91 132.39C87.08 133.48 86.48 134.78 86.19 136.14C86.04 136.82 85.97 137.51 85.97 138.2V151.25L103.14 142.41C102.99 141.78 102.84 141.14 102.7 140.52Z" fill="#D4E1CF"/>
<path d="M81.8 136.14C81.51 134.78 80.91 133.48 80.08 132.39C79.25 131.29 78.17 130.38 76.96 129.76L45.36 113.48V126.53C45.37 128.28 45.84 130 46.74 131.49C47.63 132.98 48.91 134.19 50.43 134.97L82.02 151.25V138.2C82.03 137.51 81.95 136.82 81.8 136.14ZM80.19 148.19L51.25 133.29C50.03 132.66 49.01 131.7 48.29 130.5C47.57 129.31 47.2 127.93 47.2 126.53V116.54L76.14 131.44C77.06 131.91 77.86 132.57 78.51 133.38C79.16 134.19 79.64 135.12 79.92 136.14C80.1 136.81 80.19 137.51 80.19 138.2V148.19Z" fill="#D4E1CF"/>
<path d="M107.62 160.69L102.95 163.09L102.18 163.49L91.25 169.12L87.8 170.89V160.9C87.8 160.21 87.89 159.52 88.07 158.85C88.35 157.83 88.83 156.9 89.48 156.08C90.13 155.27 90.93 154.62 91.85 154.14L104.39 147.69C104.24 147.06 104.09 146.44 103.94 145.81L94.63 150.61H94.62L91.03 152.46C89.82 153.09 88.74 153.99 87.91 155.09C87.08 156.19 86.48 157.49 86.19 158.85C86.04 159.52 85.97 160.21 85.97 160.9V173.95L101.79 165.8L102.56 165.41L108.09 162.56C107.93 161.94 107.77 161.31 107.62 160.69Z" fill="#D4E1CF"/>
<path d="M81.8 158.85C81.51 157.49 80.91 156.19 80.08 155.09C79.25 153.99 78.17 153.09 76.96 152.46L45.36 136.18V149.23C45.37 150.99 45.84 152.7 46.74 154.2C47.63 155.69 48.91 156.89 50.43 157.67L52.7 158.85L82.02 173.95V160.9C82.03 160.21 81.95 159.52 81.8 158.85ZM80.19 170.89L56.79 158.85L51.25 155.99C50.03 155.37 49.01 154.4 48.29 153.21C47.57 152.01 47.2 150.64 47.2 149.23V139.24L76.14 154.14C77.06 154.62 77.86 155.27 78.51 156.08C79.16 156.9 79.64 157.83 79.92 158.85C80.1 159.52 80.19 160.21 80.19 160.9V170.89Z" fill="#D4E1CF"/>
<path d="M112.79 180.73L99.39 187.64L98.64 188.02L88.03 193.48L87.8 193.6V183.61C87.8 182.91 87.89 182.22 88.07 181.55C88.35 180.53 88.83 179.6 89.48 178.79C89.6 178.64 89.73 178.49 89.87 178.35C90.43 177.73 91.1 177.23 91.85 176.85L100.75 172.27L101.51 171.88L109.44 167.79C109.28 167.17 109.12 166.56 108.96 165.94L101.87 169.59L101.11 169.98L91.03 175.17C90.77 175.31 90.51 175.45 90.26 175.62C89.36 176.2 88.56 176.94 87.91 177.79C87.08 178.89 86.48 180.19 86.19 181.55C86.04 182.22 85.97 182.91 85.97 183.61V196.66L98.38 190.26L99.12 189.88L113.28 182.59C113.12 181.97 112.96 181.35 112.79 180.73Z" fill="#D4E1CF"/>
<path d="M81.8 181.55C81.51 180.19 80.91 178.89 80.08 177.79C79.25 176.7 78.17 175.79 76.96 175.17L45.36 158.89V171.94C45.37 173.69 45.84 175.41 46.74 176.9C47.63 178.39 48.91 179.59 50.43 180.38L82.02 196.66V183.61C82.03 182.91 81.95 182.22 81.8 181.55ZM80.19 193.6L51.25 178.7C50.03 178.07 49.01 177.11 48.29 175.91C47.57 174.71 47.2 173.34 47.2 171.94V161.95L76.14 176.85C77.06 177.32 77.86 177.97 78.51 178.79C79.16 179.6 79.64 180.53 79.92 181.55C80.1 182.22 80.19 182.91 80.19 183.61V193.6Z" fill="#D4E1CF"/>
<path d="M117.88 200.67C117.53 200.95 117.14 201.19 116.74 201.4L97.19 211.47L96.46 211.84L87.8 216.3V206.31C87.8 205.62 87.89 204.92 88.07 204.25C88.35 203.23 88.83 202.3 89.48 201.49C90.13 200.68 90.93 200.02 91.85 199.55L97.73 196.52L98.47 196.14L114.63 187.82C114.47 187.2 114.31 186.58 114.15 185.96L98.69 193.93L91.03 197.87C89.82 198.49 88.74 199.4 87.91 200.5C87.68 200.81 87.46 201.13 87.27 201.46C86.77 202.32 86.4 203.27 86.19 204.25C86.04 204.93 85.97 205.62 85.97 206.31V219.36L86.01 219.34L97.04 213.66L117.56 203.08C117.84 202.94 118.11 202.78 118.37 202.61C118.2 201.96 118.04 201.32 117.88 200.67Z" fill="#D4E1CF"/>
<path d="M81.8 204.25C81.51 202.89 80.91 201.59 80.08 200.5C79.25 199.4 78.17 198.49 76.96 197.87L45.36 181.59V194.64C45.37 196.39 45.84 198.11 46.74 199.6C47.63 201.09 48.91 202.3 50.43 203.08L82.02 219.36V206.31C82.03 205.62 81.95 204.93 81.8 204.25ZM80.19 216.3L51.25 201.4C50.03 200.77 49.01 199.81 48.29 198.61C47.57 197.42 47.2 196.04 47.2 194.64V184.65L76.14 199.55C77.06 200.02 77.86 200.68 78.51 201.49C79.16 202.3 79.64 203.23 79.92 204.25C80.1 204.92 80.19 205.62 80.19 206.31V216.3Z" fill="#D4E1CF"/>
<path d="M120.79 212.67V217.34C120.79 218.75 120.42 220.12 119.7 221.32C118.98 222.51 117.96 223.48 116.74 224.1L111.2 226.96L96.14 234.71L95.43 235.07L87.8 239V229.01C87.8 228.32 87.89 227.63 88.07 226.96C88.35 225.93 88.83 225.01 89.48 224.19C90.13 223.38 90.93 222.73 91.85 222.25L119.66 207.93C119.51 207.3 119.36 206.67 119.21 206.05L96.81 217.59L96.09 217.96L91.03 220.57C89.82 221.19 88.74 222.1 87.91 223.2C87.08 224.3 86.48 225.6 86.19 226.96C86.04 227.63 85.97 228.32 85.97 229.01V242.06L95.38 237.21L96.09 236.85L115.29 226.96L117.56 225.78C119.08 225 120.36 223.8 121.26 222.31C121.78 221.44 122.15 220.5 122.38 219.52C121.85 217.22 121.32 214.94 120.79 212.67Z" fill="#D4E1CF"/>
<path d="M81.8 226.96C81.51 225.6 80.91 224.3 80.08 223.2C79.25 222.1 78.17 221.19 76.96 220.57L45.36 204.29V217.34C45.37 219.1 45.84 220.81 46.74 222.31C47.63 223.8 48.91 225 50.43 225.78L52.7 226.96L82.02 242.06V229.01C82.03 228.32 81.95 227.63 81.8 226.96ZM80.19 239L56.79 226.96L51.25 224.1C50.03 223.48 49.01 222.51 48.29 221.32C47.57 220.12 47.2 218.75 47.2 217.34V207.35L76.14 222.25C77.06 222.73 77.86 223.38 78.51 224.19C79.16 225.01 79.64 225.93 79.92 226.96C80.1 227.63 80.19 228.32 80.19 229.01V239Z" fill="#D4E1CF"/>
<path d="M95.33 241.06L91.03 243.28C89.82 243.9 88.74 244.81 87.91 245.9C87.08 247 86.48 248.3 86.19 249.66C86.04 250.33 85.97 251.02 85.97 251.72V264.77L95.47 259.87L96.16 259.51L117.56 248.49C119.08 247.7 120.36 246.5 121.26 245.01C122.15 243.52 122.63 241.8 122.63 240.05V227L95.33 241.06ZM120.79 240.05C120.79 241.45 120.42 242.82 119.7 244.02C118.98 245.22 117.96 246.18 116.74 246.81L96.11 257.43L95.42 257.79L87.8 261.71V251.72C87.8 251.02 87.89 250.33 88.07 249.66C88.35 248.64 88.83 247.71 89.48 246.9C90.13 246.08 90.93 245.43 91.85 244.96L95.32 243.18L120.79 230.06V240.05Z" fill="#D4E1CF"/>
<path d="M81.8 249.66C81.51 248.3 80.91 247 80.08 245.9C79.25 244.81 78.17 243.9 76.96 243.28L45.36 227V240.05C45.37 241.8 45.84 243.52 46.74 245.01C47.63 246.5 48.91 247.7 50.43 248.49L82.02 264.77V251.72C82.03 251.02 81.95 250.33 81.8 249.66ZM80.19 261.71L51.25 246.81C50.03 246.18 49.01 245.22 48.29 244.02C47.57 242.82 47.2 241.45 47.2 240.05V230.06L76.14 244.96C77.06 245.43 77.86 246.08 78.51 246.9C79.16 247.71 79.64 248.64 79.92 249.66C80.1 250.33 80.19 251.02 80.19 251.72V261.71Z" fill="#D4E1CF"/>
<path d="M96.27 263.29L95.58 263.64L91.03 265.98C89.82 266.6 88.74 267.51 87.91 268.61C87.08 269.7 86.48 271 86.19 272.36C86.09 272.8 86.03 273.24 85.99 273.68V273.71C85.99 273.95 85.97 274.18 85.97 274.42V287.47L86.85 287.02L117.56 271.19C119.08 270.41 120.36 269.2 121.26 267.71C122.15 266.22 122.63 264.5 122.63 262.75V249.7L96.27 263.29ZM120.79 262.75C120.79 264.15 120.42 265.53 119.7 266.72C118.98 267.92 117.96 268.88 116.74 269.51L87.8 284.41V274.42C87.8 273.73 87.89 273.03 88.07 272.36C88.35 271.34 88.83 270.41 89.48 269.6C90.13 268.79 90.93 268.13 91.85 267.66L95.64 265.71L96.33 265.35L120.79 252.76V262.75Z" fill="#D4E1CF"/>
<path d="M81.8 272.36C81.51 271 80.91 269.7 80.08 268.61C79.25 267.51 78.17 266.6 76.96 265.98L45.36 249.7V262.75C45.37 264.5 45.84 266.22 46.74 267.71C47.63 269.2 48.91 270.41 50.43 271.19L82.02 287.47V274.42C82.03 273.73 81.95 273.04 81.8 272.36ZM80.19 284.41L51.25 269.51C50.03 268.88 49.01 267.92 48.29 266.72C47.57 265.53 47.2 264.15 47.2 262.75V252.76L76.14 267.66C77.06 268.13 77.86 268.79 78.51 269.6C79.16 270.41 79.64 271.34 79.92 272.36C80.1 273.03 80.19 273.73 80.19 274.42V284.41Z" fill="#D4E1CF"/>
<path d="M30.69 0L7.45 11.97V1.98C7.45 1.32 7.53 0.64 7.7 0H5.82C5.68 0.65 5.61 1.32 5.61 1.98V15.03L34.78 0H30.69Z" fill="#D4E1CF"/>
<path d="M42.19 0L10.68 16.24C9.47 16.87 8.39 17.77 7.56 18.87C6.73 19.97 6.13 21.27 5.83 22.63C5.69 23.3 5.61 23.99 5.61 24.68V37.73L34.94 22.63L37.21 21.45C38.73 20.67 40.01 19.47 40.9 17.98C41.8 16.48 42.27 14.77 42.27 13.01V-3.90634e-05L42.19 0ZM40.44 13.01C40.44 14.42 40.06 15.79 39.35 16.99C38.63 18.18 37.61 19.15 36.39 19.77L30.85 22.63L7.45 34.67V24.68C7.45 23.99 7.54 23.3 7.72 22.63C8 21.61 8.48 20.68 9.13 19.86C9.78 19.05 10.58 18.4 11.5 17.92L40.44 3.02V13.01Z" fill="#D4E1CF"/>
<path d="M10.68 38.95C9.47 39.57 8.39 40.48 7.56 41.57C6.73 42.67 6.13 43.97 5.83 45.33C5.69 46 5.61 46.69 5.61 47.39V60.44L37.21 44.16C38.73 43.37 40.01 42.17 40.9 40.68C41.8 39.19 42.27 37.47 42.27 35.72V22.67L10.68 38.95ZM40.44 35.72C40.44 37.12 40.06 38.5 39.35 39.69C38.63 40.89 37.61 41.85 36.39 42.48L7.45 57.38V47.39C7.45 46.69 7.54 46 7.72 45.33C8 44.31 8.48 43.38 9.13 42.57C9.78 41.75 10.58 41.1 11.5 40.63L40.44 25.73V35.72Z" fill="#D4E1CF"/>
<path d="M10.68 61.65C9.47 62.27 8.39 63.18 7.56 64.28C6.73 65.37 6.13 66.67 5.83 68.03C5.69 68.71 5.61 69.4 5.61 70.09V83.14L37.21 66.86C38.73 66.08 40.01 64.87 40.9 63.38C41.8 61.89 42.27 60.17 42.27 58.42V45.37L10.68 61.65ZM40.44 58.42C40.44 59.82 40.06 61.2 39.35 62.39C38.63 63.59 37.61 64.55 36.39 65.18L7.45 80.08V70.09C7.45 69.4 7.54 68.7 7.72 68.03C8 67.01 8.48 66.08 9.13 65.27C9.78 64.46 10.58 63.8 11.5 63.33L40.44 48.43V58.42Z" fill="#D4E1CF"/>
<path d="M10.68 84.35C9.47 84.98 8.39 85.88 7.56 86.98C6.73 88.08 6.13 89.38 5.83 90.74C5.69 91.41 5.61 92.1 5.61 92.79V105.84L34.94 90.74L37.21 89.56C38.73 88.78 40.01 87.58 40.9 86.09C41.8 84.59 42.27 82.88 42.27 81.12V68.07L10.68 84.35ZM40.44 81.12C40.44 82.53 40.06 83.9 39.35 85.1C38.63 86.29 37.61 87.26 36.39 87.88L30.85 90.74L7.45 102.78V92.79C7.45 92.1 7.54 91.41 7.72 90.74C8 89.72 8.48 88.79 9.13 87.97C9.78 87.16 10.58 86.51 11.5 86.03L40.44 71.13V81.12Z" fill="#D4E1CF"/>
<path d="M10.68 107.06C9.47 107.68 8.39 108.59 7.56 109.68C6.73 110.78 6.13 112.08 5.83 113.44C5.69 114.11 5.61 114.8 5.61 115.5V128.55L37.21 112.27C38.73 111.48 40.01 110.28 40.9 108.79C41.8 107.3 42.27 105.58 42.27 103.83V90.78L10.68 107.06ZM40.44 103.83C40.44 105.23 40.06 106.61 39.35 107.8C38.63 109 37.61 109.96 36.39 110.59L7.45 125.49V115.5C7.45 114.8 7.54 114.11 7.72 113.44C8 112.42 8.48 111.49 9.13 110.68C9.78 109.86 10.58 109.21 11.5 108.74L40.44 93.84V103.83Z" fill="#D4E1CF"/>
<path d="M111.04 0L87.8 11.97V1.98C87.8 1.32 87.89 0.64 88.06 0H86.18C86.04 0.65 85.97 1.32 85.97 1.98V15.03L115.14 0H111.04Z" fill="#D4E1CF"/>
<path d="M81.82 0H79.93C80.11 0.64 80.19 1.32 80.19 1.98V11.97L56.95 0H52.85L82.02 15.03V1.98C82.02 1.32 81.96 0.65 81.82 0Z" fill="#D4E1CF"/>
<path d="M122.55 0L91.04 16.24C89.83 16.87 88.75 17.77 87.92 18.87C87.08 19.97 86.49 21.27 86.19 22.63C86.05 23.3 85.97 23.99 85.97 24.68V37.73L108.43 26.17C108.92 25.2 109.43 24.24 109.96 23.27L87.8 34.67V24.68C87.8 23.99 87.9 23.3 88.08 22.63C88.36 21.61 88.83 20.68 89.49 19.86C90.14 19.05 90.94 18.4 91.86 17.92L120.8 3.02V6.23C121.4 5.41 122.01 4.6 122.63 3.78V0H122.55Z" fill="#D4E1CF"/>
<path d="M81.8 22.63C81.51 21.27 80.91 19.97 80.08 18.87C79.24 17.77 78.16 16.87 76.95 16.24L45.44 0H45.36V13.01C45.36 14.77 45.84 16.48 46.73 17.98C47.63 19.47 48.91 20.67 50.43 21.45L52.69 22.63L82.02 37.73V24.68C82.02 23.99 81.95 23.3 81.8 22.63ZM80.19 34.67L51.24 19.77C50.03 19.15 49 18.18 48.29 16.99C47.57 15.79 47.19 14.42 47.19 13.01V3.02L76.14 17.92C77.05 18.4 77.85 19.05 78.51 19.86C79.16 20.68 79.63 21.61 79.91 22.63C80.1 23.3 80.19 23.99 80.19 24.68V34.67Z" fill="#D4E1CF"/>
<path d="M88.08 45.33C88.36 44.31 88.83 43.38 89.49 42.57C90.14 41.75 90.94 41.1 91.86 40.63L104.78 33.98C105.17 33.07 105.57 32.16 105.98 31.25L91.04 38.95C89.83 39.57 88.75 40.48 87.92 41.57C87.08 42.67 86.49 43.97 86.19 45.33C86.05 46 85.97 46.69 85.97 47.39V60.44L98.23 54.13C98.41 53.32 98.61 52.52 98.81 51.71L87.8 57.38V47.39C87.8 46.69 87.9 46 88.08 45.33Z" fill="#D4E1CF"/>
<path d="M81.8 45.33C81.51 43.97 80.91 42.67 80.08 41.57C79.24 40.48 78.16 39.57 76.95 38.95L45.36 22.67V35.72C45.36 37.47 45.84 39.19 46.73 40.68C47.63 42.17 48.91 43.37 50.43 44.16L52.69 45.33L82.02 60.44V47.39C82.02 46.69 81.95 46 81.8 45.33ZM80.19 57.38L56.79 45.33L51.24 42.48C50.03 41.85 49 40.89 48.29 39.69C47.57 38.5 47.19 37.12 47.19 35.72V25.73L76.14 40.63C77.05 41.1 77.85 41.75 78.51 42.57C79.16 43.38 79.63 44.31 79.91 45.33C80.1 46 80.19 46.69 80.19 47.39V57.38Z" fill="#D4E1CF"/>
<path d="M88.08 68.03C88.36 67.01 88.83 66.08 89.49 65.27C90.14 64.46 90.94 63.8 91.86 63.33L96.9 60.73C97.04 59.95 97.18 59.18 97.33 58.41L91.04 61.65C89.83 62.27 88.75 63.18 87.92 64.28C87.08 65.37 86.49 66.67 86.19 68.03C86.05 68.71 85.97 69.4 85.97 70.09V83.14L95.09 78.44C95.12 77.71 95.15 76.99 95.19 76.27L87.8 80.08V70.09C87.8 69.4 87.9 68.7 88.08 68.03Z" fill="#D4E1CF"/>
<path d="M81.8 68.03C81.51 66.67 80.91 65.37 80.08 64.28C79.24 63.18 78.16 62.27 76.95 61.65L45.36 45.37V58.42C45.36 60.17 45.84 61.89 46.73 63.38C47.63 64.87 48.91 66.08 50.43 66.86L52.69 68.03L82.02 83.14V70.09C82.02 69.4 81.95 68.71 81.8 68.03ZM80.19 80.08L56.79 68.03L51.24 65.18C50.03 64.55 49 63.59 48.29 62.39C47.57 61.2 47.19 59.82 47.19 58.42V48.43L76.14 63.33C77.05 63.8 77.85 64.46 78.51 65.27C79.16 66.08 79.63 67.01 79.91 68.03C80.1 68.7 80.19 69.4 80.19 70.09V80.08Z" fill="#D4E1CF"/>
<path d="M95.66 98.74L87.8 102.78V92.79C87.8 92.1 87.9 91.41 88.08 90.74C88.36 89.72 88.83 88.79 89.49 87.97C90.14 87.16 90.94 86.51 91.86 86.03L95.01 84.41C95 83.7 95.01 83 95.01 82.3L91.04 84.35C89.83 84.98 88.75 85.88 87.92 86.98C87.08 88.08 86.49 89.38 86.19 90.74C86.05 91.41 85.97 92.1 85.97 92.79V105.84L95.85 100.75C95.78 100.08 95.72 99.41 95.66 98.74Z" fill="#D4E1CF"/>
<path d="M81.8 90.74C81.51 89.38 80.91 88.08 80.08 86.98C79.24 85.88 78.16 84.98 76.95 84.35L45.36 68.07V81.12C45.36 82.88 45.84 84.59 46.73 86.09C47.63 87.58 48.91 88.78 50.43 89.56L52.69 90.74L82.02 105.84V92.79C82.02 92.1 81.95 91.41 81.8 90.74ZM80.19 102.78L51.24 87.88C50.03 87.26 49 86.29 48.29 85.1C47.57 83.9 47.19 82.53 47.19 81.12V71.13L76.14 86.03C77.05 86.51 77.85 87.16 78.51 87.97C79.16 88.79 79.63 89.72 79.91 90.74C80.1 91.41 80.19 92.1 80.19 92.79V102.78Z" fill="#D4E1CF"/>
<path d="M98.5 119.98L87.8 125.49V115.5C87.8 114.8 87.9 114.11 88.08 113.44C88.36 112.42 88.83 111.49 89.49 110.68C90.14 109.86 90.94 109.21 91.86 108.74L96.46 106.37C96.38 105.71 96.3 105.05 96.23 104.39L91.04 107.06C89.83 107.68 88.75 108.59 87.92 109.68C87.08 110.78 86.49 112.08 86.19 113.44C86.05 114.11 85.97 114.8 85.97 115.5V128.55L98.85 121.91C98.73 121.27 98.61 120.62 98.5 119.98Z" fill="#D4E1CF"/>
<path d="M81.8 113.44C81.51 112.08 80.91 110.78 80.08 109.68C79.24 108.59 78.16 107.68 76.95 107.06L45.36 90.78V103.83C45.36 105.58 45.84 107.3 46.73 108.79C47.63 110.28 48.91 111.48 50.43 112.27L52.69 113.44L82.02 128.55V115.5C82.02 114.8 81.95 114.11 81.8 113.44ZM80.19 125.49L56.79 113.44L51.24 110.59C50.03 109.96 49 109 48.29 107.8C47.57 106.61 47.19 105.23 47.19 103.83V93.84L76.14 108.74C77.05 109.21 77.85 109.86 78.51 110.68C79.16 111.49 79.63 112.42 79.91 113.44C80.1 114.11 80.19 114.8 80.19 115.5V125.49Z" fill="#D4E1CF"/>
<path d="M10.68 402.2C9.47 402.82 8.39 403.73 7.56 404.83C6.72 405.92 6.13 407.22 5.83 408.58C5.69 409.26 5.61 409.95 5.61 410.64V423.69L34.94 408.58L37.2 407.41C38.73 406.63 40.01 405.42 40.9 403.93C41.8 402.44 42.27 400.72 42.27 398.97V385.92L10.68 402.2ZM40.44 398.97C40.44 400.37 40.06 401.75 39.35 402.94C38.63 404.14 37.61 405.1 36.39 405.73L30.84 408.58L7.44 420.63V410.64C7.44 409.94 7.54 409.25 7.72 408.58C8 407.56 8.47 406.63 9.13 405.82C9.78 405.01 10.58 404.35 11.5 403.88L40.44 388.98V398.97Z" fill="#D4E1CF"/>
<path d="M10.68 424.9C9.47 425.52 8.39 426.43 7.56 427.53C6.72 428.63 6.13 429.93 5.83 431.29C5.78 431.52 5.74 431.76 5.71 432H7.56C7.6 431.76 7.66 431.52 7.72 431.29C8 430.26 8.47 429.34 9.13 428.52C9.78 427.71 10.58 427.06 11.5 426.58L40.44 411.68V421.67C40.44 423.08 40.06 424.45 39.35 425.65C38.63 426.84 37.61 427.81 36.39 428.43L29.46 432H33.56L34.94 431.29L37.2 430.11C38.73 429.33 40.01 428.13 40.9 426.64C41.8 425.14 42.27 423.43 42.27 421.67V408.62L10.68 424.9Z" fill="#D4E1CF"/>
<path d="M119.05 387.77L117.92 388.35L91.04 402.2C89.83 402.82 88.75 403.73 87.92 404.83C87.08 405.92 86.49 407.22 86.19 408.58C86.04 409.26 85.97 409.95 85.97 410.64V423.69L115.3 408.58L117.56 407.41C118.24 407.06 118.86 406.64 119.43 406.14C120.14 405.5 120.76 404.76 121.26 403.93C122.16 402.44 122.63 400.72 122.63 398.97V385.92L119.05 387.77ZM120.8 398.97C120.8 400.37 120.42 401.75 119.7 402.94C119.28 403.65 118.75 404.28 118.13 404.8C117.71 405.16 117.24 405.47 116.75 405.73L111.2 408.58L87.8 420.63V410.64C87.8 409.94 87.89 409.25 88.08 408.58C88.36 407.56 88.83 406.63 89.48 405.82C90.14 405.01 90.94 404.35 91.85 403.88L110.8 394.13L118.71 390.05L119.83 389.48L120.8 388.98V398.97Z" fill="#D4E1CF"/>
<path d="M81.8 408.58C81.5 407.22 80.91 405.92 80.07 404.83C79.24 403.73 78.16 402.82 76.95 402.2L45.36 385.92V398.97C45.36 400.72 45.83 402.44 46.73 403.93C47.63 405.42 48.9 406.63 50.43 407.41L52.69 408.58L82.02 423.69V410.64C82.02 409.95 81.94 409.26 81.8 408.58ZM80.19 420.63L56.79 408.58L51.24 405.73C50.02 405.1 49 404.14 48.28 402.94C47.57 401.75 47.19 400.37 47.19 398.97V388.98L76.14 403.88C77.05 404.35 77.85 405.01 78.5 405.82C79.16 406.63 79.63 407.56 79.91 408.58C80.09 409.25 80.19 409.94 80.19 410.64V420.63Z" fill="#D4E1CF"/>
<path d="M122.52 408.68L91.04 424.9C89.83 425.52 88.75 426.43 87.92 427.53C87.08 428.63 86.49 429.93 86.19 431.29C86.14 431.52 86.1 431.76 86.06 432H87.92C87.96 431.76 88.01 431.52 88.08 431.29C88.36 430.26 88.83 429.34 89.48 428.52C90.14 427.71 90.94 427.06 91.85 426.58L120.8 411.68V421.67C120.8 423.08 120.42 424.45 119.7 425.65C118.99 426.84 117.96 427.81 116.75 428.43L109.82 432H113.92L115.3 431.29L117.56 430.11C119.09 429.33 120.36 428.13 121.26 426.64C122.16 425.14 122.63 423.43 122.63 421.67V408.62L122.52 408.68Z" fill="#D4E1CF"/>
<path d="M81.8 431.29C81.5 429.93 80.91 428.63 80.07 427.53C79.24 426.43 78.16 425.52 76.95 424.9L45.36 408.62V421.67C45.36 423.43 45.83 425.14 46.73 426.64C47.63 428.13 48.9 429.33 50.43 430.11L52.69 431.29L54.07 432H58.17L51.24 428.43C50.02 427.81 49 426.84 48.28 425.65C47.57 424.45 47.19 423.08 47.19 421.67V411.68L76.14 426.58C77.05 427.06 77.85 427.71 78.5 428.52C79.16 429.34 79.63 430.26 79.91 431.29C79.97 431.52 80.03 431.76 80.07 432H81.92C81.89 431.76 81.85 431.52 81.8 431.29Z" fill="#D4E1CF"/>
<path d="M10.68 288.68C9.47 289.3 8.39 290.21 7.55 291.31C6.72 292.41 6.12 293.71 5.83 295.07C5.68 295.74 5.61 296.43 5.61 297.12V310.17L34.94 295.07L37.2 293.89C38.72 293.11 40 291.91 40.9 290.42C41.79 288.92 42.27 287.21 42.27 285.45V272.4L10.68 288.68ZM40.43 285.45C40.44 286.86 40.06 288.23 39.34 289.43C38.63 290.62 37.6 291.59 36.38 292.21L30.84 295.07L7.44 307.11V297.12C7.44 296.43 7.53 295.74 7.72 295.07C8 294.04 8.47 293.12 9.12 292.3C9.78 291.49 10.57 290.84 11.49 290.36L40.43 275.46V285.45Z" fill="#D4E1CF"/>
<path d="M10.68 311.39C9.47 312.01 8.39 312.92 7.55 314.01C6.72 315.11 6.12 316.41 5.83 317.77C5.68 318.44 5.61 319.13 5.61 319.83V332.88L34.94 317.77L37.2 316.6C38.72 315.81 40 314.61 40.9 313.12C41.79 311.63 42.27 309.91 42.27 308.16V295.11L10.68 311.39ZM40.43 308.16C40.44 309.56 40.06 310.93 39.34 312.13C38.63 313.33 37.6 314.29 36.38 314.92L7.44 329.82V319.83C7.44 319.13 7.53 318.44 7.72 317.77C8 316.75 8.47 315.82 9.12 315.01C9.78 314.19 10.57 313.54 11.49 313.07L40.43 298.17V308.16Z" fill="#D4E1CF"/>
<path d="M10.68 334.09C9.47 334.71 8.39 335.62 7.55 336.72C6.72 337.81 6.12 339.11 5.83 340.47C5.68 341.15 5.61 341.84 5.61 342.53V355.58L34.94 340.47L37.2 339.3C38.72 338.52 40 337.31 40.9 335.82C41.79 334.33 42.27 332.61 42.27 330.86V317.81L10.68 334.09ZM40.43 330.86C40.44 332.26 40.06 333.64 39.34 334.83C38.63 336.03 37.6 336.99 36.38 337.62L7.44 352.52V342.53C7.44 341.84 7.53 341.14 7.72 340.47C8 339.45 8.47 338.52 9.12 337.71C9.78 336.9 10.57 336.24 11.49 335.77L40.43 320.87V330.86Z" fill="#D4E1CF"/>
<path d="M10.68 356.79C9.47 357.41 8.39 358.32 7.55 359.42C6.72 360.52 6.12 361.82 5.83 363.18C5.68 363.85 5.61 364.54 5.61 365.23V378.28L34.94 363.18L37.2 362C38.72 361.22 40 360.02 40.9 358.53C41.79 357.03 42.27 355.32 42.27 353.56V340.51L10.68 356.79ZM40.43 353.56C40.44 354.97 40.06 356.34 39.34 357.54C38.63 358.73 37.6 359.7 36.38 360.32L30.84 363.18L7.44 375.22V365.23C7.44 364.54 7.53 363.85 7.72 363.18C8 362.15 8.47 361.23 9.12 360.41C9.78 359.6 10.57 358.95 11.49 358.47L40.43 343.57V353.56Z" fill="#D4E1CF"/>
<path d="M10.68 379.5C9.47 380.12 8.39 381.03 7.55 382.12C6.72 383.22 6.12 384.52 5.83 385.88C5.68 386.55 5.61 387.24 5.61 387.94V400.99L34.94 385.88L37.2 384.71C38.72 383.92 40 382.72 40.9 381.23C41.79 379.74 42.27 378.02 42.27 376.27V363.22L10.68 379.5ZM40.43 376.27C40.44 377.67 40.06 379.04 39.34 380.24C38.63 381.43 37.6 382.4 36.38 383.03L7.44 397.93V387.94C7.44 387.24 7.53 386.55 7.72 385.88C8 384.86 8.47 383.93 9.12 383.12C9.78 382.3 10.57 381.65 11.49 381.18L40.43 366.28V376.27Z" fill="#D4E1CF"/>
<path d="M91.03 288.68C89.82 289.3 88.74 290.21 87.91 291.31C87.68 291.61 87.48 291.92 87.29 292.25C86.78 293.13 86.4 294.08 86.19 295.07C86.04 295.74 85.97 296.43 85.97 297.12V310.17L115.29 295.07L117.56 293.89C119.08 293.11 120.36 291.91 121.26 290.42C122.15 288.92 122.62 287.21 122.63 285.45V272.4L91.03 288.68ZM120.79 285.45C120.79 286.86 120.42 288.23 119.7 289.43C118.98 290.62 117.96 291.59 116.74 292.21L88.76 306.62L87.8 307.11V297.12C87.8 296.43 87.89 295.74 88.07 295.07C88.35 294.04 88.83 293.12 89.48 292.3C90.13 291.49 90.93 290.84 91.85 290.36L96.91 287.75L97.58 287.4L120.79 275.46V285.45Z" fill="#D4E1CF"/>
<path d="M81.8 295.07C81.51 293.71 80.91 292.41 80.08 291.31C79.25 290.21 78.17 289.3 76.96 288.68L45.36 272.4V285.45C45.37 287.21 45.84 288.92 46.74 290.42C47.63 291.91 48.91 293.11 50.43 293.89L52.7 295.07L82.02 310.17V297.12C82.03 296.43 81.95 295.74 81.8 295.07ZM80.19 307.11L56.79 295.07L51.25 292.21C50.03 291.59 49.01 290.62 48.29 289.43C47.57 288.23 47.2 286.86 47.2 285.45V275.46L76.14 290.36C77.06 290.84 77.86 291.49 78.51 292.3C79.16 293.12 79.64 294.04 79.92 295.07C80.1 295.74 80.19 296.43 80.19 297.12V307.11Z" fill="#D4E1CF"/>
<path d="M91.03 311.39C90.48 311.67 89.96 312.01 89.48 312.4C88.89 312.87 88.36 313.41 87.91 314.01C87.08 315.11 86.48 316.41 86.19 317.77C86.04 318.44 85.97 319.13 85.97 319.83V332.88L101.3 324.98L101.95 324.65L117.56 316.6C119.08 315.81 120.36 314.61 121.26 313.12C122.15 311.63 122.62 309.91 122.63 308.16V295.11L91.03 311.39ZM120.79 308.16C120.79 309.56 120.42 310.93 119.7 312.13C118.98 313.33 117.96 314.29 116.74 314.92L101.64 322.7L100.99 323.03L87.8 329.82V319.83C87.8 319.13 87.89 318.44 88.07 317.77C88.35 316.75 88.83 315.82 89.48 315.01C89.57 314.89 89.67 314.78 89.78 314.67C90.36 314.01 91.06 313.47 91.85 313.07L120.79 298.17V308.16Z" fill="#D4E1CF"/>
<path d="M81.8 317.77C81.51 316.41 80.91 315.11 80.08 314.01C79.25 312.92 78.17 312.01 76.96 311.39L45.36 295.11V308.16C45.37 309.91 45.84 311.63 46.74 313.12C47.63 314.61 48.91 315.81 50.43 316.6L82.02 332.88V319.83C82.03 319.13 81.95 318.44 81.8 317.77ZM80.19 329.82L51.25 314.92C50.03 314.29 49.01 313.33 48.29 312.13C47.57 310.93 47.2 309.56 47.2 308.16V298.17L76.14 313.07C77.06 313.54 77.86 314.19 78.51 315.01C79.16 315.82 79.64 316.75 79.92 317.77C80.1 318.44 80.19 319.13 80.19 319.83V329.82Z" fill="#D4E1CF"/>
<path d="M92.71 333.22L91.03 334.09C89.82 334.71 88.74 335.62 87.91 336.72C87.08 337.81 86.48 339.11 86.19 340.47C86.04 341.15 85.97 341.84 85.97 342.53V355.58L105.2 345.67L105.83 345.35L117.56 339.3C119.08 338.52 120.36 337.31 121.26 335.82C122.15 334.33 122.62 332.61 122.63 330.86V317.81L92.71 333.22ZM120.79 330.86C120.79 332.26 120.42 333.64 119.7 334.83C118.98 336.03 117.96 336.99 116.74 337.62L105.42 343.44L104.79 343.77L87.8 352.52V342.53C87.8 341.84 87.89 341.14 88.07 340.47C88.35 339.45 88.83 338.52 89.48 337.71C90.13 336.9 90.93 336.24 91.85 335.77L120.79 320.87V330.86Z" fill="#D4E1CF"/>
<path d="M81.8 340.47C81.51 339.11 80.91 337.81 80.08 336.72C79.25 335.62 78.17 334.71 76.96 334.09L45.36 317.81V330.86C45.37 332.61 45.84 334.33 46.74 335.82C47.63 337.31 48.91 338.52 50.43 339.3L82.02 355.58V342.53C82.03 341.84 81.95 341.15 81.8 340.47ZM80.19 352.52L51.25 337.62C50.03 336.99 49.01 336.03 48.29 334.83C47.57 333.64 47.2 332.26 47.2 330.86V320.87L76.14 335.77C77.06 336.24 77.86 336.9 78.51 337.71C79.16 338.52 79.64 339.45 79.92 340.47C80.1 341.14 80.19 341.84 80.19 342.53V352.52Z" fill="#D4E1CF"/>
<path d="M106.59 348.78L105.96 349.1L91.03 356.79C89.82 357.41 88.74 358.32 87.91 359.42C87.08 360.52 86.48 361.82 86.19 363.18C86.04 363.85 85.97 364.54 85.97 365.23V378.28L110.31 365.74L110.92 365.43L115.29 363.18L117.56 362C119.08 361.22 120.36 360.02 121.26 358.53C122.15 357.03 122.62 355.32 122.63 353.56V340.51L106.59 348.78ZM120.79 353.56C120.79 354.97 120.42 356.34 119.7 357.54C118.98 358.73 117.96 359.7 116.74 360.32L111.2 363.18L110.39 363.6L109.78 363.91L87.8 375.22V365.23C87.8 364.54 87.89 363.85 88.07 363.18C88.35 362.15 88.83 361.23 89.48 360.41C90.13 359.6 90.93 358.95 91.85 358.47L106.4 350.98L120.79 343.57V353.56Z" fill="#D4E1CF"/>
<path d="M81.8 363.18C81.51 361.82 80.91 360.52 80.08 359.42C79.25 358.32 78.17 357.41 76.96 356.79L45.36 340.51V353.56C45.37 355.32 45.84 357.03 46.74 358.53C47.63 360.02 48.91 361.22 50.43 362L52.7 363.18L82.02 378.28V365.23C82.03 364.54 81.95 363.85 81.8 363.18ZM80.19 375.22L56.79 363.18L51.25 360.32C50.03 359.7 49.01 358.73 48.29 357.54C47.57 356.34 47.2 354.97 47.2 353.56V343.57L76.14 358.47C77.06 358.95 77.86 359.6 78.51 360.41C79.16 361.23 79.64 362.15 79.92 363.18C80.1 363.85 80.19 364.54 80.19 365.23V375.22Z" fill="#D4E1CF"/>
<path d="M111.32 369.05L91.03 379.5C89.82 380.12 88.74 381.03 87.91 382.12C87.08 383.22 86.48 384.52 86.19 385.88C86.04 386.55 85.97 387.24 85.97 387.94V400.99L115.29 385.88L117.1 384.95L117.56 384.71C117.56 384.71 117.63 384.67 117.67 384.65C119.14 383.86 120.38 382.68 121.26 381.23C122.15 379.74 122.62 378.02 122.63 376.27V363.22L111.32 369.05ZM120.79 376.27C120.79 377.67 120.42 379.04 119.7 380.24C119.02 381.36 118.08 382.29 116.95 382.91C116.88 382.96 116.81 382.99 116.74 383.03L87.8 397.93V387.94C87.8 387.24 87.89 386.55 88.07 385.88C88.35 384.86 88.83 383.93 89.48 383.12C90.13 382.3 90.93 381.65 91.85 381.18L111.89 370.86L112.49 370.55L120.79 366.28V376.27Z" fill="#D4E1CF"/>
<path d="M81.8 385.88C81.51 384.52 80.91 383.22 80.08 382.12C79.25 381.03 78.17 380.12 76.96 379.5L45.36 363.22V376.27C45.37 378.02 45.84 379.74 46.74 381.23C47.63 382.72 48.91 383.92 50.43 384.71L82.02 400.99V387.94C82.03 387.24 81.95 386.55 81.8 385.88ZM80.19 397.93L51.25 383.03C50.03 382.4 49.01 381.43 48.29 380.24C47.57 379.04 47.2 377.67 47.2 376.27V366.28L76.14 381.18C77.06 381.65 77.86 382.3 78.51 383.12C79.16 383.93 79.64 384.86 79.92 385.88C80.1 386.55 80.19 387.24 80.19 387.94V397.93Z" fill="#D4E1CF"/>
</svg>
