<svg width="18" height="18" viewBox="0 0 18 18" fill="none" xmlns="http://www.w3.org/2000/svg">
<path d="M7.71401 2.57143H10.2854C10.2854 2.23044 10.15 1.90341 9.90886 1.66229C9.66774 1.42117 9.34071 1.28571 8.99972 1.28571C8.65873 1.28571 8.3317 1.42117 8.09058 1.66229C7.84947 1.90341 7.71401 2.23044 7.71401 2.57143ZM6.42829 2.57143C6.42829 1.88944 6.69921 1.23539 7.18145 0.753154C7.66368 0.270918 8.31774 0 8.99972 0C9.68171 0 10.3358 0.270918 10.818 0.753154C11.3002 1.23539 11.5711 1.88944 11.5711 2.57143H16.714C16.8845 2.57143 17.048 2.63916 17.1686 2.75972C17.2891 2.88028 17.3569 3.04379 17.3569 3.21429C17.3569 3.38478 17.2891 3.5483 17.1686 3.66885C17.048 3.78941 16.8845 3.85714 16.714 3.85714H15.9889L14.4396 15.2203C14.3345 15.9903 13.954 16.6962 13.3684 17.2073C12.7829 17.7184 12.0321 18 11.2549 18H6.74458C5.96739 18 5.21652 17.7184 4.63099 17.2073C4.04547 16.6962 3.66494 15.9903 3.55986 15.2203L2.01058 3.85714H1.28544C1.11494 3.85714 0.951426 3.78941 0.830867 3.66885C0.710307 3.5483 0.642578 3.38478 0.642578 3.21429C0.642578 3.04379 0.710307 2.88028 0.830867 2.75972C0.951426 2.63916 1.11494 2.57143 1.28544 2.57143H6.42829ZM7.71401 7.07143C7.71401 6.90093 7.64628 6.73742 7.52572 6.61686C7.40516 6.4963 7.24165 6.42857 7.07115 6.42857C6.90065 6.42857 6.73714 6.4963 6.61658 6.61686C6.49602 6.73742 6.42829 6.90093 6.42829 7.07143V13.5C6.42829 13.6705 6.49602 13.834 6.61658 13.9546C6.73714 14.0751 6.90065 14.1429 7.07115 14.1429C7.24165 14.1429 7.40516 14.0751 7.52572 13.9546C7.64628 13.834 7.71401 13.6705 7.71401 13.5V7.07143ZM10.9283 6.42857C11.0988 6.42857 11.2623 6.4963 11.3829 6.61686C11.5034 6.73742 11.5711 6.90093 11.5711 7.07143V13.5C11.5711 13.6705 11.5034 13.834 11.3829 13.9546C11.2623 14.0751 11.0988 14.1429 10.9283 14.1429C10.7578 14.1429 10.5943 14.0751 10.4737 13.9546C10.3532 13.834 10.2854 13.6705 10.2854 13.5V7.07143C10.2854 6.90093 10.3532 6.73742 10.4737 6.61686C10.5943 6.4963 10.7578 6.42857 10.9283 6.42857ZM4.83401 15.0467C4.8971 15.5087 5.12541 15.9321 5.47666 16.2387C5.82792 16.5453 6.27835 16.7142 6.74458 16.7143H11.2549C11.7213 16.7145 12.1721 16.5457 12.5236 16.2391C12.8751 15.9325 13.1036 15.5089 13.1667 15.0467L14.6916 3.85714H3.30786L4.83401 15.0467Z" fill="#CC2121"/>
</svg>
