<svg width="32" height="32" viewBox="0 0 32 32" fill="none" xmlns="http://www.w3.org/2000/svg">
<path fill-rule="evenodd" clip-rule="evenodd" d="M7 16C7 11.0293 11.0293 7 16 7C20.9707 7 25 11.0293 25 16C25 20.9707 20.9707 25 16 25C11.0293 25 7 20.9707 7 16ZM16 8.25581C11.7229 8.25581 8.25581 11.7229 8.25581 16C8.25581 20.2771 11.7229 23.7442 16 23.7442C20.2771 23.7442 23.7442 20.2771 23.7442 16C23.7442 11.7229 20.2771 8.25581 16 8.25581Z" fill="#1E1E1E"/>
<path fill-rule="evenodd" clip-rule="evenodd" d="M13.78 11.2684C14.3688 10.6796 15.1674 10.3488 16 10.3488C16.8327 10.3488 17.6312 10.6796 18.22 11.2684C18.8088 11.8572 19.1395 12.6557 19.1395 13.4884C19.1395 14.321 18.8088 15.1196 18.22 15.7084C17.6312 16.2971 16.8327 16.6279 16 16.6279C15.1674 16.6279 14.3688 16.2971 13.78 15.7084C13.1912 15.1196 12.8605 14.321 12.8605 13.4884C12.8605 12.6557 13.1912 11.8572 13.78 11.2684ZM16 11.6047C15.5004 11.6047 15.0213 11.8031 14.668 12.1564C14.3148 12.5097 14.1163 12.9888 14.1163 13.4884C14.1163 13.988 14.3148 14.4671 14.668 14.8204C15.0213 15.1736 15.5004 15.3721 16 15.3721C16.4996 15.3721 16.9787 15.1736 17.332 14.8204C17.6853 14.4671 17.8837 13.988 17.8837 13.4884C17.8837 12.9888 17.6853 12.5097 17.332 12.1564C16.9787 11.8031 16.4996 11.6047 16 11.6047Z" fill="#1E1E1E"/>
<path d="M21.9337 21.8605C20.3205 20.0711 18.2132 19.0634 16.0184 19.0317C13.8235 19 11.6967 19.9466 10.0482 21.6889L9.30231 20.6715C11.1598 18.7076 13.5566 17.6402 16.0303 17.6752C18.504 17.7103 20.8792 18.8454 22.6977 20.8614L21.9337 21.8605Z" fill="#1E1E1E"/>
</svg>
