<svg fill="none" class="icon icon-cart" viewBox="0 0 40 40" xmlns="http://www.w3.org/2000/svg">
<path fill-rule="evenodd" clip-rule="evenodd" d="M5.57492 14.7843C5.92819 14.431 6.40732 14.2325 6.90691 14.2325C7.40651 14.2325 7.88564 14.431 8.23891 14.7843C8.59217 15.1375 8.79063 15.6167 8.79063 16.1163C8.79063 16.6159 8.59217 17.095 8.23891 17.4483C7.88564 17.8015 7.40651 18 6.90691 18C6.40732 18 5.92819 17.8015 5.57492 17.4483C5.22166 17.095 5.02319 16.6159 5.02319 16.1163C5.02319 15.6167 5.22166 15.1375 5.57492 14.7843ZM6.90691 15.4884C6.74038 15.4884 6.58067 15.5545 6.46292 15.6723C6.34516 15.79 6.27901 15.9497 6.27901 16.1163C6.27901 16.2828 6.34516 16.4425 6.46292 16.5603C6.58067 16.678 6.74038 16.7442 6.90691 16.7442C7.07344 16.7442 7.23316 16.678 7.35091 16.5603C7.46867 16.4425 7.53482 16.2828 7.53482 16.1163C7.53482 15.9497 7.46867 15.79 7.35091 15.6723C7.23316 15.5545 7.07344 15.4884 6.90691 15.4884ZM13.947 14.7843C14.3003 14.431 14.7794 14.2325 15.279 14.2325C15.7786 14.2325 16.2577 14.431 16.611 14.7843C16.9643 15.1375 17.1627 15.6167 17.1627 16.1163C17.1627 16.6159 16.9643 17.095 16.611 17.4483C16.2577 17.8015 15.7786 18 15.279 18C14.7794 18 14.3003 17.8015 13.947 17.4483C13.5937 17.095 13.3953 16.6159 13.3953 16.1163C13.3953 15.6167 13.5937 15.1375 13.947 14.7843ZM15.279 15.4884C15.1125 15.4884 14.9528 15.5545 14.835 15.6723C14.7173 15.79 14.6511 15.9497 14.6511 16.1163C14.6511 16.2828 14.7173 16.4425 14.835 16.5603C14.9528 16.678 15.1125 16.7442 15.279 16.7442C15.4455 16.7442 15.6052 16.678 15.723 16.5603C15.8408 16.4425 15.9069 16.2828 15.9069 16.1163C15.9069 15.9497 15.8408 15.79 15.723 15.6723C15.6052 15.5545 15.4455 15.4884 15.279 15.4884Z" fill="#1E1E1E"/>
<path fill-rule="evenodd" clip-rule="evenodd" d="M0 0.627907C0 0.281123 0.281123 0 0.627907 0C2.27606 0 3.18391 0.913868 3.5675 1.67442H17.3721C17.5583 1.67442 17.7349 1.75705 17.8542 1.9C17.9735 2.04294 18.0232 2.23146 17.9899 2.41465L16.3154 11.6239C16.2612 11.9225 16.0011 12.1395 15.6977 12.1395H3.33209C2.6659 12.1395 2.24608 12.2868 2.00804 12.4669C1.79263 12.6298 1.67442 12.8564 1.67442 13.186C1.67442 13.5157 1.79263 13.7422 2.00804 13.9052C2.24608 14.0853 2.6659 14.2326 3.33209 14.2326H15.2791C15.6258 14.2326 15.907 14.5137 15.907 14.8605C15.907 15.2072 15.6258 15.4884 15.2791 15.4884H3.33209C2.5047 15.4884 1.78173 15.3087 1.25038 14.9067C0.696393 14.4876 0.418605 13.8769 0.418605 13.186C0.418605 12.4951 0.696393 11.8845 1.25038 11.4654C1.78173 11.0634 2.5047 10.8837 3.33209 10.8837H4.06159L2.52601 2.43806C2.4304 2.09154 1.93827 1.25581 0.627907 1.25581C0.281123 1.25581 0 0.97469 0 0.627907ZM3.8919 2.93023L5.33799 10.8837H15.1736L16.6197 2.93023H3.8919Z" fill="#1E1E1E"/>
</svg>
