<svg width="16" height="15" viewBox="0 0 16 15" fill="none" xmlns="http://www.w3.org/2000/svg">
<path fill-rule="evenodd" clip-rule="evenodd" d="M14.8182 0.682343C15.1948 1.05889 15.1948 1.66938 14.8182 2.04593L2.54594 14.3182C2.1694 14.6947 1.5589 14.6947 1.18236 14.3182C0.805814 13.9416 0.805814 13.3311 1.18236 12.9546L13.4546 0.682343C13.8312 0.3058 14.4417 0.3058 14.8182 0.682343Z" fill="#3D2B1F"/>
<path fill-rule="evenodd" clip-rule="evenodd" d="M1.18149 0.681792C1.55803 0.305249 2.16853 0.305249 2.54507 0.681793L14.8173 12.9541C15.1939 13.3306 15.1939 13.9411 14.8173 14.3176C14.4408 14.6942 13.8303 14.6942 13.4538 14.3176L1.18149 2.04538C0.804945 1.66883 0.804945 1.05834 1.18149 0.681792Z" fill="#3D2B1F"/>
</svg>
