<svg width="32" height="32" viewBox="0 0 32 32" fill="none" xmlns="http://www.w3.org/2000/svg">
<path fill-rule="evenodd" clip-rule="evenodd" d="M12.5752 21.7842C12.9284 21.4309 13.4076 21.2324 13.9072 21.2324C14.4068 21.2324 14.8859 21.4309 15.2391 21.7842C15.5924 22.1374 15.7909 22.6165 15.7909 23.1161C15.7909 23.6157 15.5924 24.0949 15.2391 24.4481C14.8859 24.8014 14.4068 24.9999 13.9072 24.9999C13.4076 24.9999 12.9284 24.8014 12.5752 24.4481C12.2219 24.0949 12.0234 23.6157 12.0234 23.1161C12.0234 22.6165 12.2219 22.1374 12.5752 21.7842ZM13.9072 22.4882C13.7406 22.4882 13.5809 22.5544 13.4632 22.6721C13.3454 22.7899 13.2793 22.9496 13.2793 23.1161C13.2793 23.2827 13.3454 23.4424 13.4632 23.5601C13.5809 23.6779 13.7406 23.744 13.9072 23.744C14.0737 23.744 14.2334 23.6779 14.3512 23.5601C14.4689 23.4424 14.5351 23.2827 14.5351 23.1161C14.5351 22.9496 14.4689 22.7899 14.3512 22.6721C14.2334 22.5544 14.0737 22.4882 13.9072 22.4882ZM20.9473 21.7842C21.3005 21.4309 21.7797 21.2324 22.2792 21.2324C22.7788 21.2324 23.258 21.4309 23.6112 21.7842C23.9645 22.1374 24.163 22.6165 24.163 23.1161C24.163 23.6157 23.9645 24.0949 23.6112 24.4481C23.258 24.8014 22.7788 24.9999 22.2792 24.9999C21.7797 24.9999 21.3005 24.8014 20.9473 24.4481C20.594 24.0949 20.3955 23.6157 20.3955 23.1161C20.3955 22.6165 20.594 22.1374 20.9473 21.7842ZM22.2792 22.4882C22.1127 22.4882 21.953 22.5544 21.8353 22.6721C21.7175 22.7899 21.6513 22.9496 21.6513 23.1161C21.6513 23.2827 21.7175 23.4424 21.8353 23.5601C21.953 23.6779 22.1127 23.744 22.2792 23.744C22.4458 23.744 22.6055 23.6779 22.7232 23.5601C22.841 23.4424 22.9072 23.2827 22.9072 23.1161C22.9072 22.9496 22.841 22.7899 22.7232 22.6721C22.6055 22.5544 22.4458 22.4882 22.2792 22.4882Z" fill="#1E1E1E"/>
<path fill-rule="evenodd" clip-rule="evenodd" d="M7 7.62791C7 7.28112 7.28112 7 7.62791 7C9.27606 7 10.1839 7.91387 10.5675 8.67442H24.3721C24.5583 8.67442 24.7349 8.75705 24.8542 8.9C24.9735 9.04294 25.0232 9.23146 24.9899 9.41465L23.3154 18.6239C23.2612 18.9225 23.0011 19.1395 22.6977 19.1395H10.3321C9.6659 19.1395 9.24608 19.2868 9.00804 19.4669C8.79263 19.6298 8.67442 19.8564 8.67442 20.186C8.67442 20.5157 8.79263 20.7422 9.00804 20.9052C9.24608 21.0853 9.6659 21.2326 10.3321 21.2326H22.2791C22.6258 21.2326 22.907 21.5137 22.907 21.8605C22.907 22.2072 22.6258 22.4884 22.2791 22.4884H10.3321C9.5047 22.4884 8.78173 22.3087 8.25038 21.9067C7.69639 21.4876 7.4186 20.8769 7.4186 20.186C7.4186 19.4951 7.69639 18.8845 8.25038 18.4654C8.78173 18.0634 9.5047 17.8837 10.3321 17.8837H11.0616L9.52601 9.43806C9.4304 9.09154 8.93827 8.25581 7.62791 8.25581C7.28112 8.25581 7 7.97469 7 7.62791ZM10.8919 9.93023L12.338 17.8837H22.1736L23.6197 9.93023H10.8919Z" fill="#1E1E1E"/>
</svg>
