<svg width="16" height="13" viewBox="0 0 16 13" fill="none" xmlns="http://www.w3.org/2000/svg">
<path fill-rule="evenodd" clip-rule="evenodd" d="M1.7619 6.45394C1.56351 6.26909 1.30112 6.16845 1.03 6.17323C0.758886 6.17802 0.500209 6.28785 0.30847 6.47959C0.11673 6.67133 0.00689973 6.93 0.00211617 7.20112C-0.00266739 7.47224 0.0979696 7.73463 0.282825 7.93301L4.46887 12.1191C4.66509 12.315 4.93108 12.4251 5.20841 12.4251C5.48573 12.4251 5.75172 12.315 5.94794 12.1191L15.7154 2.35162C15.9002 2.15323 16.0009 1.89084 15.9961 1.61973C15.9913 1.34861 15.8815 1.08993 15.6897 0.898191C15.498 0.706452 15.2393 0.596621 14.9682 0.591838C14.6971 0.587054 14.4347 0.687691 14.2363 0.872547L5.20841 9.90045L1.7619 6.45394Z" fill="#285445"/>
</svg>
