<svg width="18" height="18" viewBox="0 0 18 18" fill="none" xmlns="http://www.w3.org/2000/svg">
<path d="M4.872 10.4955C5.16977 10.4955 5.45535 10.3772 5.6659 10.1667C5.87646 9.9561 5.99475 9.67052 5.99475 9.37275C5.99475 9.07498 5.87646 8.7894 5.6659 8.57885C5.45535 8.36829 5.16977 8.25 4.872 8.25C4.57423 8.25 4.28865 8.36829 4.0781 8.57885C3.86754 8.7894 3.74925 9.07498 3.74925 9.37275C3.74925 9.67052 3.86754 9.9561 4.0781 10.1667C4.28865 10.3772 4.57423 10.4955 4.872 10.4955ZM5.9955 13.1235C5.9955 13.4213 5.87721 13.7068 5.66665 13.9174C5.4561 14.128 5.17052 14.2463 4.87275 14.2463C4.57498 14.2463 4.2894 14.128 4.07885 13.9174C3.86829 13.7068 3.75 13.4213 3.75 13.1235C3.75 12.8257 3.86829 12.5402 4.07885 12.3296C4.2894 12.119 4.57498 12.0007 4.87275 12.0007C5.17052 12.0007 5.4561 12.119 5.66665 12.3296C5.87721 12.5402 5.9955 12.8257 5.9955 13.1235ZM9 10.4955C9.29777 10.4955 9.58335 10.3772 9.7939 10.1667C10.0045 9.9561 10.1227 9.67052 10.1227 9.37275C10.1227 9.07498 10.0045 8.7894 9.7939 8.57885C9.58335 8.36829 9.29777 8.25 9 8.25C8.70223 8.25 8.41665 8.36829 8.2061 8.57885C7.99554 8.7894 7.87725 9.07498 7.87725 9.37275C7.87725 9.67052 7.99554 9.9561 8.2061 10.1667C8.41665 10.3772 8.70223 10.4955 9 10.4955ZM10.1235 13.1235C10.1235 13.4213 10.0052 13.7068 9.79465 13.9174C9.5841 14.128 9.29852 14.2463 9.00075 14.2463C8.70298 14.2463 8.4174 14.128 8.20685 13.9174C7.99629 13.7068 7.878 13.4213 7.878 13.1235C7.878 12.8257 7.99629 12.5402 8.20685 12.3296C8.4174 12.119 8.70298 12.0007 9.00075 12.0007C9.29852 12.0007 9.5841 12.119 9.79465 12.3296C10.0052 12.5402 10.1235 12.8257 10.1235 13.1235ZM13.1235 10.4955C13.4213 10.4955 13.7068 10.3772 13.9174 10.1667C14.128 9.9561 14.2463 9.67052 14.2463 9.37275C14.2463 9.07498 14.128 8.7894 13.9174 8.57885C13.7068 8.36829 13.4213 8.25 13.1235 8.25C12.8257 8.25 12.5402 8.36829 12.3296 8.57885C12.119 8.7894 12.0007 9.07498 12.0007 9.37275C12.0007 9.67052 12.119 9.9561 12.3296 10.1667C12.5402 10.3772 12.8257 10.4955 13.1235 10.4955ZM18 3.75C18 2.75544 17.6049 1.80161 16.9016 1.09835C16.1984 0.395088 15.2446 0 14.25 0H3.75C2.75544 0 1.80161 0.395088 1.09835 1.09835C0.395088 1.80161 0 2.75544 0 3.75V14.25C0 15.2446 0.395088 16.1984 1.09835 16.9016C1.80161 17.6049 2.75544 18 3.75 18H14.25C15.2446 18 16.1984 17.6049 16.9016 16.9016C17.6049 16.1984 18 15.2446 18 14.25V3.75ZM1.5 6H16.5V14.25C16.5 14.8467 16.2629 15.419 15.841 15.841C15.419 16.2629 14.8467 16.5 14.25 16.5H3.75C3.15326 16.5 2.58097 16.2629 2.15901 15.841C1.73705 15.419 1.5 14.8467 1.5 14.25V6ZM3.75 1.5H14.25C14.8467 1.5 15.419 1.73705 15.841 2.15901C16.2629 2.58097 16.5 3.15326 16.5 3.75V4.5H1.5V3.75C1.5 3.15326 1.73705 2.58097 2.15901 2.15901C2.58097 1.73705 3.15326 1.5 3.75 1.5Z" fill="#626262"/>
</svg>
