<?xml version="1.0" encoding="UTF-8"?>
<svg id="a" xmlns="http://www.w3.org/2000/svg" viewBox="0 0 631.12 120">
  <defs>
    <style>
      .cls-1 {
        fill: #fff;
      }
    </style>
  </defs>
  <g id="b">
    <path class="cls-1" d="M97.66,46.32c-7.54-20.73-30.54-31.45-51.27-23.91s-31.45,30.54-23.91,51.27c7.54,20.73,30.54,31.45,51.27,23.91,20.73-7.54,31.45-30.54,23.91-51.27ZM29.57,66.84h0c-4.53-12.46,1.89-26.23,14.34-30.76s26.23,1.89,30.76,14.34h0c4.53,12.46-1.89,26.23-14.34,30.76s-26.23-1.89-30.76-14.34Z"/>
    <g>
      <path class="cls-1" d="M120,93.64l16.98-50.4h6.9l16.67,50.4h-6.12l-5.27-15.51h-19.77l-5.27,15.51h-4.12ZM130.47,74.95h17.68l-8.76-27.21-8.92,27.21ZM166.44,93.64v-58l5.58-.31v58.31h-5.58ZM181.11,93.64v-58l5.58-.31v58.31h-5.58ZM198.59,91.27c-2.07-2.09-3.1-5.21-3.1-9.34v-27.06h5.66v25.9c0,6.36,2.69,9.54,8.06,9.54,1.86,0,3.46-.29,4.81-.89,1.34-.59,2.41-1.23,3.22-1.9.8-.67,1.2-1.06,1.2-1.16v-31.48h5.66v38.77h-4.73l-.78-3.72c-.67.93-1.91,1.91-3.72,2.95-1.81,1.03-4.32,1.55-7.52,1.55-3.77,0-6.69-1.04-8.76-3.14v-.02ZM233.12,54.87h4.19l.85,7.99c0-.31.3-1.2.89-2.67.59-1.47,1.51-2.86,2.75-4.15s2.84-1.94,4.81-1.94c.98,0,2.09.17,3.33.5,1.24.34,2.04.58,2.4.74l-.54,4.26c-.36-.16-1.18-.39-2.44-.7s-2.39-.47-3.37-.47c-1.5,0-2.78.51-3.84,1.51-1.06,1.01-1.85,2.08-2.37,3.22-.52,1.14-.85,1.99-1.01,2.56v27.91h-5.66v-38.77h0ZM256.74,91.9c-2.07-1.68-3.1-4.02-3.1-7.02,0-7.6,7.31-12.17,21.94-13.72v-4.11c0-3.67-.6-6.18-1.78-7.52-1.19-1.35-3.28-2.02-6.28-2.02-1.34,0-2.71.25-4.11.74s-2.57,1.01-3.53,1.55-1.56.89-1.82,1.05l-.62-3.18c.26-.2.92-.59,1.98-1.16s2.4-1.11,4.03-1.63,3.27-.77,4.92-.77c4.44,0,7.7.93,9.77,2.79,2.07,1.86,3.1,5.14,3.1,9.84v19c0,2.07.19,3.46.58,4.19.39.72.86,1.08,1.43,1.08.46,0,1.03-.09,1.7-.27s1.11-.32,1.32-.43l.23,2.64c-.42.15-1.29.44-2.64.85-1.34.41-2.48.62-3.41.62-1.34,0-2.38-.43-3.1-1.28-.72-.86-1.16-2.37-1.32-4.53h-.08c0,.2-.41.8-1.24,1.78-.83.98-2.05,1.9-3.68,2.75s-3.66,1.28-6.09,1.28c-3.41,0-6.15-.84-8.22-2.52h.02ZM271.47,89.76c1.34-.83,2.36-1.73,3.06-2.71s1.05-1.55,1.05-1.71v-11.32c-4.7.52-8.57,1.53-11.59,3.02-3.02,1.5-4.53,3.88-4.53,7.13,0,2.22.65,3.92,1.94,5.08s3.05,1.74,5.27,1.74c1.86,0,3.46-.41,4.81-1.24h0ZM305.52,93.64l.23-50.4.16.23-.08-.23h7.21l17.75,43.19h.08l17.75-43.19h6.82l.23,50.4h-5.74l-.23-43.19h-.08l-17.45,43.19h-4.73l-17.52-43.19-.16,43.19h-4.26.02ZM368.27,89.57c-2.94-3.23-4.42-8.08-4.42-14.54s1.42-11.63,4.26-15.35c2.84-3.72,6.72-5.58,11.63-5.58,4.44,0,7.87,1.53,10.28,4.61,2.4,3.07,3.6,7.43,3.6,13.06,0,.98-.05,1.78-.15,2.4-.11.62-.18,1.01-.23,1.16h-23.49c0,10.44,3.77,15.66,11.32,15.66,2.07,0,3.84-.38,5.31-1.13s2.62-1.55,3.45-2.4,1.24-1.36,1.24-1.51l2.25,1.86c0,.21-.5.87-1.47,1.98-.98,1.11-2.43,2.16-4.34,3.14-1.92.98-4.26,1.47-7.06,1.47-5.17,0-9.23-1.61-12.18-4.85v.02ZM388.35,72.09l.08-1.47c0-8.79-2.89-13.18-8.69-13.18-3.05,0-5.4,1.2-7.05,3.61-1.66,2.4-2.61,6.09-2.87,11.05h18.53ZM402.29,89.38c-2.84-3.36-4.26-8.04-4.26-14.03,0-6.46,1.38-11.62,4.15-15.47,2.77-3.85,6.65-5.78,11.67-5.78,2.12,0,3.9.27,5.35.81,1.44.54,2.56,1.14,3.33,1.78.78.65,1.16,1.02,1.16,1.13h.08v-22.18l5.58-.31v58.31h-4.81l-.62-4.58c-.57,1.14-1.68,2.32-3.33,3.53-1.66,1.22-3.98,1.82-6.98,1.82-4.71,0-8.48-1.68-11.32-5.04h0ZM419.65,89.42c1.35-.8,2.37-1.67,3.07-2.6s1.04-1.47,1.04-1.63v-23.8c0-.1-.35-.46-1.04-1.08-.7-.62-1.66-1.19-2.87-1.71-1.22-.52-2.65-.77-4.31-.77-3.98,0-6.9,1.46-8.76,4.38-1.86,2.92-2.79,7.25-2.79,12.99,0,5.43.92,9.36,2.75,11.79s4.53,3.64,8.1,3.64c1.86,0,3.46-.4,4.81-1.2h0ZM439,46.19c-.67-.67-1.01-1.5-1.01-2.48s.34-1.81,1.01-2.48c.57-.57,1.32-.86,2.25-.86.98,0,1.76.26,2.32.78.62.67.93,1.53.93,2.56,0,.93-.31,1.76-.93,2.48-.72.57-1.5.86-2.32.86-.93,0-1.68-.29-2.25-.86ZM438.38,93.64v-38.77h5.66v38.77h-5.66ZM455.13,89.45c-2.9-3.31-4.34-8.24-4.34-14.81s1.43-11.7,4.3-15.24,7.07-5.31,12.6-5.31c1.81,0,3.51.25,5.12.74,1.6.49,2.96,1.03,4.07,1.62,1.11.6,1.67.92,1.67.97l-.7,3.18c-.2-.16-.76-.48-1.67-.97s-2.07-.97-3.49-1.43c-1.42-.47-2.89-.7-4.38-.7-3.98,0-6.9,1.32-8.76,3.95-1.86,2.64-2.79,7.01-2.79,13.11s.98,10.11,2.94,12.64,4.73,3.8,8.3,3.8c2.02,0,3.74-.36,5.16-1.08s2.52-1.49,3.29-2.29c.78-.8,1.17-1.28,1.17-1.44l2.48,1.63c0,.21-.47.87-1.4,1.98s-2.33,2.16-4.19,3.14c-1.86.98-4.19,1.47-6.98,1.47-5.38,0-9.51-1.65-12.41-4.96h.01ZM485.45,93.64v-38.77h5.66v38.77h-5.66ZM500.57,54.87h4.65l.7,3.72c.83-.98,2.12-1.98,3.88-2.98s4.29-1.51,7.6-1.51c3.72,0,6.61,1.04,8.68,3.14,2.07,2.09,3.1,5.21,3.1,9.34v27.06h-5.66v-25.9c0-3.31-.67-5.73-2.01-7.25-1.35-1.52-3.34-2.28-5.97-2.28-1.86,0-3.49.28-4.88.85s-2.5,1.19-3.3,1.86-1.2,1.06-1.2,1.16v31.56h-5.58v-38.77h-.01ZM537.9,91.9c-2.07-1.68-3.1-4.02-3.1-7.02,0-7.6,7.31-12.17,21.94-13.72v-4.11c0-3.67-.59-6.18-1.78-7.52-1.19-1.35-3.29-2.02-6.28-2.02-1.34,0-2.71.25-4.11.74s-2.57,1.01-3.53,1.55-1.56.89-1.82,1.05l-.62-3.18c.26-.2.92-.59,1.98-1.16s2.4-1.11,4.03-1.63c1.62-.52,3.27-.77,4.92-.77,4.44,0,7.7.93,9.77,2.79,2.06,1.86,3.1,5.14,3.1,9.84v19c0,2.07.2,3.46.58,4.19.39.72.87,1.08,1.44,1.08.46,0,1.03-.09,1.71-.27.67-.18,1.11-.32,1.32-.43l.23,2.64c-.41.15-1.29.44-2.64.85-1.34.41-2.48.62-3.41.62-1.35,0-2.38-.43-3.1-1.28-.72-.86-1.16-2.37-1.32-4.53h-.08c0,.2-.41.8-1.24,1.78-.83.98-2.05,1.9-3.68,2.75s-3.65,1.28-6.09,1.28c-3.41,0-6.15-.84-8.22-2.52h0ZM552.63,89.76c1.35-.83,2.37-1.73,3.07-2.71.7-.98,1.04-1.55,1.04-1.71v-11.32c-4.7.52-8.57,1.53-11.59,3.02s-4.53,3.88-4.53,7.13c0,2.22.65,3.92,1.94,5.08s3.05,1.74,5.27,1.74c1.86,0,3.46-.41,4.81-1.24h0ZM573.14,93.64v-58l5.58-.31v58.31h-5.58ZM590.46,93.14c-1.89-.86-3.31-1.77-4.26-2.75s-1.43-1.55-1.43-1.7l1.94-2.71c0,.1.41.59,1.24,1.47.83.88,1.96,1.69,3.41,2.44,1.45.75,3.15,1.13,5.12,1.13,2.89,0,5.08-.72,6.55-2.17,1.47-1.44,2.21-3.2,2.21-5.27,0-1.5-.38-2.74-1.12-3.72-.75-.98-1.68-1.74-2.79-2.29-1.11-.54-2.65-1.15-4.62-1.82-2.28-.83-4.08-1.59-5.43-2.29-1.34-.7-2.49-1.74-3.45-3.14s-1.43-3.2-1.43-5.43c0-3.31,1.2-5.93,3.61-7.87,2.4-1.94,5.49-2.91,9.27-2.91,1.65,0,3.24.22,4.77.66,1.52.44,2.75.9,3.68,1.4.93.49,1.53.81,1.78.97l-.93,3.34c-.21-.16-.72-.48-1.55-.97s-1.9-.97-3.22-1.43c-1.32-.47-2.68-.7-4.07-.7-2.38,0-4.3.6-5.78,1.78-1.47,1.19-2.21,2.69-2.21,4.5,0,1.5.39,2.75,1.16,3.76.78,1.01,1.74,1.8,2.91,2.37,1.16.57,2.73,1.22,4.69,1.94,2.27.77,4.12,1.54,5.54,2.29s2.62,1.82,3.61,3.22,1.47,3.2,1.47,5.43c0,3.36-1.16,6.16-3.49,8.41-2.32,2.25-5.73,3.37-10.23,3.37-2.74,0-5.05-.43-6.94-1.28v-.03Z"/>
      <path class="cls-1" d="M491.7,42.24c-.72-1.98-2.91-3-4.89-2.28s-3,2.91-2.28,4.89,2.91,3,4.89,2.28,3-2.91,2.28-4.89ZM485.21,44.2h0c-.43-1.19.18-2.5,1.37-2.93s2.5.18,2.93,1.37h0c.43,1.19-.18,2.5-1.37,2.93s-2.5-.18-2.93-1.37Z"/>
      <g>
        <path class="cls-1" d="M617.13,57.91c.65-.12,1.06-.41,1.06-.97,0-.79-.56-1.02-1.51-1.02h-1.6v.07c.39.14.43.27.43.81v2.01c0,.43-.04.58-.43.67v.07h1.58v-.07c-.45-.09-.5-.24-.5-.67v-.88h.36l1.24,1.62h.88v-.07l-1.51-1.57ZM616.12,57.66v-1.44h.52c.54,0,.9.18.9.69,0,.54-.39.75-.9.75h-.52Z"/>
        <path class="cls-1" d="M616.79,54.28c-2.04,0-3.5,1.42-3.5,3.47s1.46,3.47,3.5,3.47,3.51-1.42,3.51-3.47-1.46-3.47-3.51-3.47ZM616.79,60.74c-1.84,0-2.96-1.21-2.96-2.99s1.12-3,2.96-3,2.97,1.22,2.97,3-1.14,2.99-2.97,2.99Z"/>
        <path class="cls-1" d="M617.13,57.91c.65-.12,1.06-.41,1.06-.97,0-.79-.56-1.02-1.51-1.02h-1.6v.07c.39.14.43.27.43.81v2.01c0,.43-.04.58-.43.67v.07h1.58v-.07c-.45-.09-.5-.24-.5-.67v-.88h.36l1.24,1.62h.88v-.07l-1.51-1.57ZM616.12,57.66v-1.44h.52c.54,0,.9.18.9.69,0,.54-.39.75-.9.75h-.52Z"/>
        <path class="cls-1" d="M617.13,57.91c.65-.12,1.06-.41,1.06-.97,0-.79-.56-1.02-1.51-1.02h-1.6v.07c.39.14.43.27.43.81v2.01c0,.43-.04.58-.43.67v.07h1.58v-.07c-.45-.09-.5-.24-.5-.67v-.88h.36l1.24,1.62h.88v-.07l-1.51-1.57ZM616.12,57.66v-1.44h.52c.54,0,.9.18.9.69,0,.54-.39.75-.9.75h-.52Z"/>
      </g>
    </g>
  </g>
</svg>