<?xml version="1.0" encoding="UTF-8"?>
<svg id="b" xmlns="http://www.w3.org/2000/svg" viewBox="0 0 120 120">
  <defs>
    <style>
      .cls-1 {
        fill: #c79662;
      }
    </style>
  </defs>
  <path class="cls-1" d="M97.66,46.32c-7.54-20.73-30.54-31.45-51.27-23.91s-31.45,30.54-23.91,51.27c7.54,20.73,30.54,31.45,51.27,23.91,20.73-7.54,31.45-30.54,23.91-51.27ZM29.57,66.84h0c-4.53-12.46,1.89-26.23,14.34-30.76,12.46-4.53,26.23,1.89,30.76,14.34h0c4.53,12.46-1.89,26.23-14.34,30.76-12.46,4.53-26.23-1.89-30.76-14.34Z"/>
  <g>
    <path class="cls-1" d="M96.56,20c-2.04,0-3.5,1.41-3.5,3.47s1.46,3.47,3.5,3.47,3.51-1.42,3.51-3.47-1.46-3.47-3.51-3.47ZM96.56,26.46c-1.84,0-2.96-1.21-2.96-2.99s1.12-3,2.96-3,2.97,1.22,2.97,3-1.14,2.99-2.97,2.99Z"/>
    <path class="cls-1" d="M97.96,22.65c0-.78-.56-1.01-1.51-1.01h-1.6v.07c.39.13.43.27.43.81v2c0,.43-.04.59-.43.68v.07h1.58v-.07c-.45-.09-.5-.25-.5-.68v-.87h.36l1.24,1.62h.88v-.07l-1.51-1.58c.65-.11,1.06-.4,1.06-.97ZM95.89,23.38v-1.45h.52c.54,0,.9.18.9.7s-.39.75-.9.75h-.52Z"/>
  </g>
</svg>